#!OML:ASF F:\VICON\USERDATA\INSTALL\rory3\rory3.ASF
:FULLY-SPECIFIED
:DEGREES
229
root -4.14819 18.0845 7.26737 -5.56126 -47.6607 5.95664
lowerback 9.53612 2.08726 -2.26841
upperback 0.407561 2.47037 -0.879176
thorax -4.98057 1.25509 0.0212769
lowerneck -20.064 -4.82854 -10.2076
upperneck 26.5229 -6.08112 8.07953
head 12.7523 -2.7368 3.79611
rclavicle 1.04387e-013 7.95139e-016
rhumerus -36.3314 -15.4173 -76.1136
rradius 32.1275
rwrist 9.78081
rhand -10.5659 9.97192
rfingers 7.12502
rthumb 15.4387 -19.4315
lclavicle 1.04387e-013 7.95139e-016
lhumerus -38.4291 8.50265 79.3752
lradius 31.4715
lwrist -10.4939
lhand -11.7157 25.2569
lfingers 7.12502
lthumb 14.3309 54.7423
rfemur -3.79717 -1.19717 17.3768
rtibia 58.8773
rfoot 16.9147 2.36557
rtoes 23.0592
lfemur -3.08794 -1.33904 -26.7773
ltibia 1.51076e-014
lfoot 4.96279 -6.56327
ltoes -0.554236
230
root -4.24428 18.0884 7.37636 -6.25058 -47.5632 6.64658
lowerback 9.82332 2.09572 -2.89475
upperback 0.424379 2.40185 -0.862191
thorax -5.14993 1.23596 0.388872
lowerneck -20.1866 -4.80882 -10.2776
upperneck 26.6062 -5.99972 8.01321
head 12.8021 -2.71434 3.79773
rclavicle 4.07012e-014 -1.25234e-014
rhumerus -36.4141 -15.4157 -75.9515
rradius 32.0809
rwrist 10.152
rhand -10.6601 10.0363
rfingers 7.12502
rthumb 15.3479 -19.3741
lclavicle 4.07012e-014 -1.25234e-014
lhumerus -38.5554 8.12444 79.7197
lradius 31.8417
lwrist -10.4133
lhand -12.1873 24.869
lfingers 7.12502
lthumb 13.8765 54.3861
rfemur -4.99482 -1.69045 16.5766
rtibia 60.9814
rfoot 17.1866 2.19522
rtoes 22.6397
lfemur -2.40763 -1.12938 -27.4304
ltibia 7.95139e-016
lfoot 4.72166 -7.01913
ltoes 0.352493
231
root -4.34068 18.0973 7.4882 -6.85422 -47.5908 7.25345
lowerback 10.0623 2.1313 -3.4398
upperback 0.414871 2.37843 -0.815634
thorax -5.31831 1.23898 0.736955
lowerneck -20.1522 -4.77286 -10.3613
upperneck 26.5943 -5.88088 7.88672
head 12.7754 -2.68742 3.78297
rclavicle -1.30949e-014 1.15295e-014
rhumerus -36.5989 -15.2884 -75.8019
rradius 32.1385
rwrist 10.4473
rhand -10.8399 10.1126
rfingers 7.12502
rthumb 15.1747 -19.311
lclavicle -1.30949e-014 1.15295e-014
lhumerus -38.6838 7.93711 80.0011
lradius 32.0995
lwrist -10.4626
lhand -12.6846 24.4517
lfingers 7.12502
lthumb 13.3972 54.0009
rfemur -6.1971 -2.08898 15.8938
rtibia 62.9536
rfoot 16.6418 1.75794
rtoes 22.1268
lfemur -1.73498 -0.796283 -28.0091
ltibia 1.59028e-015
lfoot 4.51748 -7.47889
ltoes 3.08347
232
root -4.43394 18.0984 7.59562 -7.19859 -47.5616 7.57327
lowerback 10.2479 2.09365 -3.70899
upperback 0.42728 2.2892 -0.792442
thorax -5.41771 1.20242 0.91908
lowerneck -20.0693 -4.69718 -10.3977
upperneck 26.5159 -5.73586 7.80531
head 12.7086 -2.63857 3.78108
rclavicle -5.36967e-014 1.35174e-014
rhumerus -36.7071 -14.984 -75.8823
rradius 32.2462
rwrist 10.5121
rhand -10.9422 10.2776
rfingers 7.12502
rthumb 15.0762 -19.1534
lclavicle -5.36967e-014 1.35174e-014
lhumerus -38.6083 7.87766 80.1056
lradius 32.1582
lwrist -10.5713
lhand -13.2234 24.1582
lfingers 7.12502
lthumb 12.8779 53.7409
rfemur -7.42679 -2.43988 15.548
rtibia 64.801
rfoot 15.1314 1.13004
rtoes 20.7338
lfemur -1.12149 -0.54128 -28.3848
ltibia -6.75868e-015
lfoot 4.38866 -7.76501
ltoes 4.23711
233
root -4.52495 18.0875 7.69814 -7.42445 -47.4739 7.78907
lowerback 10.3335 2.00345 -3.75354
upperback 0.51168 2.15444 -0.899104
thorax -5.36824 1.13352 0.852289
lowerneck -20.1329 -4.63486 -10.2862
upperneck 26.4309 -5.68183 7.84277
head 12.6781 -2.59577 3.78371
rclavicle -8.6198e-014 -1.98785e-015
rhumerus -36.6097 -15.0597 -76.1269
rradius 32.2218
rwrist 10.5953
rhand -11.0386 10.3684
rfingers 7.12502
rthumb 14.9833 -19.0695
lclavicle -8.6198e-014 -1.98785e-015
lhumerus -38.3924 7.76471 80.009
lradius 32.3083
lwrist -10.4959
lhand -13.9545 23.7462
lfingers 7.12502
lthumb 12.173 53.372
rfemur -8.72915 -2.79428 15.3342
rtibia 66.5287
rfoot 13.1639 0.800862
rtoes 18.5403
lfemur -0.542996 -0.354787 -28.6886
ltibia -5.96354e-015
lfoot 4.29513 -7.8893
ltoes 4.43305
234
root -4.61746 18.0782 7.80101 -7.56296 -47.3679 7.92417
lowerback 10.375 1.91983 -3.78075
upperback 0.579067 2.03545 -0.958536
thorax -5.31401 1.07295 0.823797
lowerneck -20.1707 -4.57572 -10.1188
upperneck 26.3468 -5.61385 7.74944
head 12.635 -2.55855 3.72791
rclavicle -6.85807e-015 7.95139e-016
rhumerus -36.4874 -15.4874 -76.1622
rradius 32.055
rwrist 10.9505
rhand -11.2118 10.4602
rfingers 7.12502
rthumb 14.8164 -18.9901
lclavicle -6.85807e-015 7.95139e-016
lhumerus -38.2017 7.66635 79.9627
lradius 32.4382
lwrist -10.3949
lhand -14.916 23.3597
lfingers 7.12502
lthumb 11.2457 53.0382
rfemur -10.0335 -3.16147 15.1518
rtibia 68.0446
rfoot 11.1723 0.522786
rtoes 16.8194
lfemur 0.0131823 -0.19329 -28.9239
ltibia -7.7526e-015
lfoot 4.11322 -8.05537
ltoes 5.0262
235
root -4.70899 18.0748 7.90726 -7.70257 -47.2601 7.98946
lowerback 10.5357 1.85683 -3.8267
upperback 0.604116 1.94115 -0.910301
thorax -5.37679 1.02843 0.910013
lowerneck -20.1038 -4.53353 -10.1606
upperneck 26.2504 -5.5209 7.69487
head 12.572 -2.52887 3.72771
rclavicle 9.29318e-015 -2.06736e-014
rhumerus -36.4943 -15.8403 -75.9961
rradius 31.9603
rwrist 11.2561
rhand -11.2693 10.4894
rfingers 7.12502
rthumb 14.7611 -18.9649
lclavicle 9.29318e-015 -2.06736e-014
lhumerus -38.0982 7.73126 80.0104
lradius 32.5109
lwrist -10.3584
lhand -15.4907 23.1523
lfingers 7.12502
lthumb 10.6914 52.8603
rfemur -11.1932 -3.56207 14.9492
rtibia 69.2788
rfoot 9.24093 0.27569
rtoes 15.7296
lfemur 0.632465 -0.0299747 -29.1117
ltibia -3.18055e-015
lfoot 3.78409 -8.36678
ltoes 4.64596
236
root -4.80145 18.0728 8.012 -7.98673 -47.1031 8.24074
lowerback 10.7027 1.82054 -3.97799
upperback 0.633826 1.86491 -0.92907
thorax -5.43996 0.994263 0.982786
lowerneck -19.9828 -4.51524 -10.1641
upperneck 26.1101 -5.47708 7.63442
head 12.4847 -2.51834 3.70927
rclavicle -1.05505e-013 3.02153e-014
rhumerus -36.5996 -16.1833 -75.8981
rradius 32.0035
rwrist 11.1211
rhand -11.425 10.4385
rfingers 7.12502
rthumb 14.611 -19.0269
lclavicle -1.05505e-013 3.02153e-014
lhumerus -37.9884 7.62656 80.0591
lradius 32.7785
lwrist -9.88178
lhand -15.2287 23.5854
lfingers 7.12502
lthumb 10.9442 53.2802
rfemur -12.2852 -3.90075 14.6581
rtibia 70.2593
rfoot 7.36738 0.0113421
rtoes 14.8314
lfemur 1.24794 0.104034 -29.4351
ltibia -2.05742e-014
lfoot 3.54076 -8.68532
ltoes 3.93674
237
root -4.89653 18.0739 8.11282 -8.01382 -46.9927 8.25301
lowerback 10.7443 1.73928 -4.01042
upperback 0.650288 1.75347 -0.890321
thorax -5.4427 0.940509 1.05814
lowerneck -19.8794 -4.45166 -10.0786
upperneck 26.0095 -5.36854 7.47224
head 12.4036 -2.48336 3.64816
rclavicle -8.36635e-014 1.90833e-014
rhumerus -36.683 -16.362 -75.8989
rradius 32.0962
rwrist 10.8578
rhand -11.6358 10.1879
rfingers 7.12502
rthumb 14.408 -19.292
lclavicle -8.36635e-014 1.90833e-014
lhumerus -37.8574 7.71236 80.0192
lradius 33.1689
lwrist -9.19911
lhand -14.4787 24.9232
lfingers 7.12502
lthumb 11.6675 54.5783
rfemur -13.4629 -4.172 14.6395
rtibia 70.9954
rfoot 5.71604 -0.540556
rtoes 14.3676
lfemur 1.75502 0.256253 -29.5349
ltibia -1.41137e-014
lfoot 3.50516 -8.91403
ltoes 4.66877
238
root -4.99183 18.0731 8.2173 -8.00396 -46.9098 8.21391
lowerback 10.7353 1.63816 -3.99235
upperback 0.684501 1.62632 -0.82932
thorax -5.39645 0.877249 1.1326
lowerneck -19.8664 -4.373 -10.03
upperneck 26.0047 -5.23852 7.36087
head 12.3799 -2.43532 3.61881
rclavicle -5.60573e-014 3.97569e-015
rhumerus -36.7141 -16.4945 -75.8704
rradius 32.1325
rwrist 10.7874
rhand -11.8038 10.004
rfingers 7.12502
rthumb 14.2461 -19.4874
lclavicle -5.60573e-014 3.97569e-015
lhumerus -37.721 7.82477 79.9837
lradius 33.4392
lwrist -8.78195
lhand -14.285 25.7991
lfingers 7.12502
lthumb 11.8543 55.4435
rfemur -14.6082 -4.49942 14.6123
rtibia 71.5387
rfoot 4.28081 -1.00762
rtoes 14.3326
lfemur 2.27144 0.429841 -29.6052
ltibia -9.34288e-015
lfoot 3.36926 -9.15002
ltoes 5.31707
239
root -5.08465 18.0698 8.32228 -8.13411 -46.7796 8.28298
lowerback 10.8249 1.5898 -3.98016
upperback 0.737383 1.55955 -0.831408
thorax -5.3871 0.842938 1.13277
lowerneck -19.954 -4.35742 -9.9516
upperneck 26.0795 -5.21026 7.26955
head 12.4189 -2.42565 3.57611
rclavicle 2.97929e-014 1.27222e-014
rhumerus -36.7404 -16.845 -75.794
rradius 32.1087
rwrist 10.6879
rhand -12.003 9.65487
rfingers 7.12502
rthumb 14.0541 -19.8499
lclavicle 2.97929e-014 1.27222e-014
lhumerus -37.5283 7.70267 80.0326
lradius 33.5712
lwrist -8.5822
lhand -14.3223 25.9355
lfingers 7.12502
lthumb 11.8183 55.5821
rfemur -15.6559 -4.80993 14.5019
rtibia 71.9063
rfoot 3.02163 -1.13949
rtoes 13.8439
lfemur 2.8533 0.578212 -29.7526
ltibia -9.14409e-015
lfoot 3.09485 -9.37974
ltoes 7.4473
240
root -5.17409 18.0641 8.42351 -8.22279 -46.6587 8.36074
lowerback 10.9288 1.55354 -3.98612
upperback 0.758056 1.50631 -0.817011
thorax -5.42134 0.817091 1.15748
lowerneck -20.0295 -4.3555 -9.9526
upperneck 26.1691 -5.19107 7.22416
head 12.4666 -2.42263 3.56366
rclavicle 7.71285e-014 8.74653e-015
rhumerus -36.8025 -16.9647 -75.7695
rradius 32.2076
rwrist 10.2686
rhand -12.0624 9.236
rfingers 7.12502
rthumb 13.9969 -20.2728
lclavicle 7.71285e-014 8.74653e-015
lhumerus -37.3607 7.7128 80.0718
lradius 33.7384
lwrist -8.44521
lhand -14.3167 25.9238
lfingers 7.12502
lthumb 11.8237 55.57
rfemur -16.7508 -4.98825 14.4232
rtibia 72.1382
rfoot 1.78412 -1.158
rtoes 13.7132
lfemur 3.34347 0.72893 -29.8961
ltibia 5.36719e-015
lfoot 2.80695 -9.52127
ltoes 10.2425
